0
SECTION
2
HEADER
9
$INSUNITS
70
4
9
$ACADVER
1
AC1014
9
$HANDSEED
5
FFFF
0
ENDSEC
0
SECTION
2
TABLES
0
TABLE
2
VPORT
5
8
100
AcDbSymbolTable
0
ENDTAB
0
TABLE
2
LTYPE
5
5
100
AcDbSymbolTable
0
LTYPE
5
14
100
AcDbSymbolTableRecord
100
AcDbLinetypeTableRecord
2
BYBLOCK
70
0
0
LTYPE
5
15
100
AcDbSymbolTableRecord
100
AcDbLinetypeTableRecord
2
BYLAYER
70
0
0
ENDTAB
0
TABLE
2
LAYER
5
2
100
AcDbSymbolTable
70
2
0
LAYER
5
50
100
AcDbSymbolTableRecord
100
AcDbLayerTableRecord
2
0
70
0
6
CONTINUOUS
0
ENDTAB
0
TABLE
2
STYLE
5
3
100
AcDbSymbolTable
70
1
0
STYLE
5
11
100
AcDbSymbolTableRecord
100
AcDbTextStyleTableRecord
2
STANDARD
70
0
0
ENDTAB
0
TABLE
2
VIEW
5
6
100
AcDbSymbolTable
70
0
0
ENDTAB
0
TABLE
2
UCS
5
7
100
AcDbSymbolTable
70
0
0
ENDTAB
0
TABLE
2
APPID
5
9
100
AcDbSymbolTable
70
2
0
APPID
5
12
100
AcDbSymbolTableRecord
100
AcDbRegAppTableRecord
2
ACAD
70
0
0
ENDTAB
0
TABLE
2
DIMSTYLE
5
A
100
AcDbSymbolTable
70
1
0
ENDTAB
0
TABLE
2
BLOCK_RECORD
5
1
100
AcDbSymbolTable
70
1
0
BLOCK_RECORD
5
1F
100
AcDbSymbolTableRecord
100
AcDbBlockTableRecord
2
*MODEL_SPACE
0
BLOCK_RECORD
5
1B
100
AcDbSymbolTableRecord
100
AcDbBlockTableRecord
2
*PAPER_SPACE
0
ENDTAB
0
ENDSEC
0
SECTION
2
BLOCKS
0
BLOCK
5
20
100
AcDbEntity
100
AcDbBlockBegin
2
*MODEL_SPACE
0
ENDBLK
5
21
100
AcDbEntity
100
AcDbBlockEnd
0
BLOCK
5
1C
100
AcDbEntity
100
AcDbBlockBegin
2
*PAPER_SPACE
0
ENDBLK
5
1D
100
AcDbEntity
100
AcDbBlockEnd
0
ENDSEC
0
SECTION
2
ENTITIES
0
LWPOLYLINE
5
100
100
AcDbEntity
8
0
100
AcDbPolyline
90
156
70
1
43
0.0
10
280.52828
20
162.00146000000001
10
280.52828
20
165.00120000000004
10
274.53387999999995
20
165.00120000000004
10
274.53387999999995
20
162.00146000000001
10
264.99871999999999
20
162.00146000000001
10
264.99871999999999
20
152.93620000000001
10
267.99846000000002
20
152.93620000000001
10
267.99846000000002
20
146.9418
10
264.99871999999999
20
146.9418
10
264.99871999999999
20
140.94739999999999
10
267.99846000000002
20
140.94739999999999
10
267.99846000000002
20
134.953
10
264.99871999999999
20
134.953
10
264.99871999999999
20
128.95859999999999
10
267.99846000000002
20
128.95859999999999
10
267.99846000000002
20
122.96420000000001
10
264.99871999999999
20
122.96420000000001
10
264.99871999999999
20
116.96980000000002
10
267.99846000000002
20
116.96980000000002
10
267.99846000000002
20
110.97540000000001
10
264.99871999999999
20
110.97540000000001
10
264.99871999999999
20
104.98100000000001
10
267.99846000000002
20
104.98100000000001
10
267.99846000000002
20
98.986599999999996
10
264.99871999999999
20
98.986599999999996
10
264.99871999999999
20
92.992199999999997
10
267.99846000000002
20
92.992199999999997
10
267.99846000000002
20
86.997800000000012
10
264.99871999999999
20
86.997800000000012
10
264.99871999999999
20
81.003400000000013
10
267.99846000000002
20
81.003400000000013
10
267.99846000000002
20
75.009
10
264.99871999999999
20
75.009
10
264.99871999999999
20
69.014600000000002
10
267.99846000000002
20
69.014600000000002
10
267.99846000000002
20
63.020200000000003
10
264.99871999999999
20
63.020200000000003
10
264.99871999999999
20
57.025800000000004
10
267.99846000000002
20
57.025800000000004
10
267.99846000000002
20
51.031399999999998
10
264.99871999999999
20
51.031399999999998
10
264.99871999999999
20
45.037000000000006
10
267.99846000000002
20
45.037000000000006
10
267.99846000000002
20
39.0426
10
264.99871999999999
20
39.0426
10
264.99871999999999
20
33.048200000000001
10
267.99846000000002
20
33.048200000000001
10
267.99846000000002
20
27.053799999999999
10
264.99871999999999
20
27.053799999999999
10
264.99871999999999
20
21.0594
10
267.99846000000002
20
21.0594
10
267.99846000000002
20
15.065
10
264.99871999999999
20
15.065
10
264.99871999999999
20
5.9997400000000001
10
274.53387999999995
20
5.9997400000000001
10
274.53387999999995
20
3.0000000000000004
10
280.52828
20
3.0000000000000004
10
280.52828
20
5.9997400000000001
10
286.52267999999998
20
5.9997400000000001
10
286.52267999999998
20
3.0000000000000004
10
292.51707999999996
20
3.0000000000000004
10
292.51707999999996
20
5.9997400000000001
10
298.51148000000001
20
5.9997400000000001
10
298.51148000000001
20
3.0000000000000004
10
304.50587999999999
20
3.0000000000000004
10
304.50587999999999
20
5.9997400000000001
10
310.50027999999998
20
5.9997400000000001
10
310.50027999999998
20
3.0000000000000004
10
316.49468000000002
20
3.0000000000000004
10
316.49468000000002
20
5.9997400000000001
10
322.48908
20
5.9997400000000001
10
322.48908
20
3.0000000000000004
10
328.48347999999999
20
3.0000000000000004
10
328.48347999999999
20
5.9997400000000001
10
334.47787999999997
20
5.9997400000000001
10
334.47787999999997
20
3.0000000000000004
10
340.47227999999996
20
3.0000000000000004
10
340.47227999999996
20
5.9997400000000001
10
346.46668
20
5.9997400000000001
10
346.46668
20
3.0000000000000004
10
352.46107999999998
20
3.0000000000000004
10
352.46107999999998
20
5.9997400000000001
10
361.99624
20
5.9997400000000001
10
361.99624
20
15.065
10
358.99650000000003
20
15.065
10
358.99650000000003
20
21.0594
10
361.99624
20
21.0594
10
361.99624
20
27.053799999999999
10
358.99650000000003
20
27.053799999999999
10
358.99650000000003
20
33.048200000000001
10
361.99624
20
33.048200000000001
10
361.99624
20
39.0426
10
358.99650000000003
20
39.0426
10
358.99650000000003
20
45.037000000000006
10
361.99624
20
45.037000000000006
10
361.99624
20
51.031399999999998
10
358.99650000000003
20
51.031399999999998
10
358.99650000000003
20
57.025800000000004
10
361.99624
20
57.025800000000004
10
361.99624
20
63.020200000000003
10
358.99650000000003
20
63.020200000000003
10
358.99650000000003
20
69.014600000000002
10
361.99624
20
69.014600000000002
10
361.99624
20
75.009
10
358.99650000000003
20
75.009
10
358.99650000000003
20
81.003400000000013
10
361.99624
20
81.003400000000013
10
361.99624
20
86.997800000000012
10
358.99650000000003
20
86.997800000000012
10
358.99650000000003
20
92.992199999999997
10
361.99624
20
92.992199999999997
10
361.99624
20
98.986599999999996
10
358.99650000000003
20
98.986599999999996
10
358.99650000000003
20
104.98100000000001
10
361.99624
20
104.98100000000001
10
361.99624
20
110.97540000000001
10
358.99650000000003
20
110.97540000000001
10
358.99650000000003
20
116.96980000000002
10
361.99624
20
116.96980000000002
10
361.99624
20
122.96420000000001
10
358.99650000000003
20
122.96420000000001
10
358.99650000000003
20
128.95859999999999
10
361.99624
20
128.95859999999999
10
361.99624
20
134.953
10
358.99650000000003
20
134.953
10
358.99650000000003
20
140.94739999999999
10
361.99624
20
140.94739999999999
10
361.99624
20
146.9418
10
358.99650000000003
20
146.9418
10
358.99650000000003
20
152.93620000000001
10
361.99624
20
152.93620000000001
10
361.99624
20
162.00146000000001
10
352.46107999999998
20
162.00146000000001
10
352.46107999999998
20
165.00120000000004
10
346.46668
20
165.00120000000004
10
346.46668
20
162.00146000000001
10
340.47227999999996
20
162.00146000000001
10
340.47227999999996
20
165.00120000000004
10
334.47787999999997
20
165.00120000000004
10
334.47787999999997
20
162.00146000000001
10
328.48347999999999
20
162.00146000000001
10
328.48347999999999
20
165.00120000000004
10
322.48908
20
165.00120000000004
10
322.48908
20
162.00146000000001
10
316.49468000000002
20
162.00146000000001
10
316.49468000000002
20
165.00120000000004
10
310.50027999999998
20
165.00120000000004
10
310.50027999999998
20
162.00146000000001
10
304.50587999999999
20
162.00146000000001
10
304.50587999999999
20
165.00120000000004
10
298.51148000000001
20
165.00120000000004
10
298.51148000000001
20
162.00146000000001
10
292.51707999999996
20
162.00146000000001
10
292.51707999999996
20
165.00120000000004
10
286.52267999999998
20
165.00120000000004
10
286.52267999999998
20
162.00146000000001
0
ENDSEC
0
SECTION
2
OBJECTS
0
DICTIONARY
5
C
100
AcDbDictionary
3
ACAD_GROUP
350
D
3
ACAD_MLINESTYLE
350
17
0
DICTIONARY
5
D
100
AcDbDictionary
0
DICTIONARY
5
1A
330
C
100
AcDbDictionary
0
DICTIONARY
5
17
100
AcDbDictionary
0
ENDSEC
0
EOF
