0
SECTION
2
HEADER
9
$INSUNITS
70
4
9
$ACADVER
1
AC1014
9
$HANDSEED
5
FFFF
0
ENDSEC
0
SECTION
2
TABLES
0
TABLE
2
VPORT
5
8
100
AcDbSymbolTable
0
ENDTAB
0
TABLE
2
LTYPE
5
5
100
AcDbSymbolTable
0
LTYPE
5
14
100
AcDbSymbolTableRecord
100
AcDbLinetypeTableRecord
2
BYBLOCK
70
0
0
LTYPE
5
15
100
AcDbSymbolTableRecord
100
AcDbLinetypeTableRecord
2
BYLAYER
70
0
0
ENDTAB
0
TABLE
2
LAYER
5
2
100
AcDbSymbolTable
70
2
0
LAYER
5
50
100
AcDbSymbolTableRecord
100
AcDbLayerTableRecord
2
0
70
0
6
CONTINUOUS
0
ENDTAB
0
TABLE
2
STYLE
5
3
100
AcDbSymbolTable
70
1
0
STYLE
5
11
100
AcDbSymbolTableRecord
100
AcDbTextStyleTableRecord
2
STANDARD
70
0
0
ENDTAB
0
TABLE
2
VIEW
5
6
100
AcDbSymbolTable
70
0
0
ENDTAB
0
TABLE
2
UCS
5
7
100
AcDbSymbolTable
70
0
0
ENDTAB
0
TABLE
2
APPID
5
9
100
AcDbSymbolTable
70
2
0
APPID
5
12
100
AcDbSymbolTableRecord
100
AcDbRegAppTableRecord
2
ACAD
70
0
0
ENDTAB
0
TABLE
2
DIMSTYLE
5
A
100
AcDbSymbolTable
70
1
0
ENDTAB
0
TABLE
2
BLOCK_RECORD
5
1
100
AcDbSymbolTable
70
1
0
BLOCK_RECORD
5
1F
100
AcDbSymbolTableRecord
100
AcDbBlockTableRecord
2
*MODEL_SPACE
0
BLOCK_RECORD
5
1B
100
AcDbSymbolTableRecord
100
AcDbBlockTableRecord
2
*PAPER_SPACE
0
ENDTAB
0
ENDSEC
0
SECTION
2
BLOCKS
0
BLOCK
5
20
100
AcDbEntity
100
AcDbBlockBegin
2
*MODEL_SPACE
0
ENDBLK
5
21
100
AcDbEntity
100
AcDbBlockEnd
0
BLOCK
5
1C
100
AcDbEntity
100
AcDbBlockBegin
2
*PAPER_SPACE
0
ENDBLK
5
1D
100
AcDbEntity
100
AcDbBlockEnd
0
ENDSEC
0
SECTION
2
ENTITIES
0
LWPOLYLINE
5
100
100
AcDbEntity
8
0
100
AcDbPolyline
90
124
70
1
43
0.0
10
156.49728000000005
20
112.00156000000001
10
156.49728000000005
20
59.001920000000005
10
153.49753999999999
20
59.001920000000005
10
153.49753999999999
20
112.00156000000001
10
102.99726
20
112.00156000000001
10
102.99726
20
102.45878000000002
10
99.997520000000009
20
102.45878000000002
10
99.997520000000009
20
96.46438000000002
10
102.99726
20
96.46438000000002
10
102.99726
20
90.469980000000007
10
99.997520000000009
20
90.469980000000007
10
99.997520000000009
20
84.475580000000008
10
102.99726
20
84.475580000000008
10
102.99726
20
78.481180000000009
10
99.997520000000009
20
78.481180000000009
10
99.997520000000009
20
72.48678000000001
10
102.99726
20
72.48678000000001
10
102.99726
20
66.492380000000011
10
99.997520000000009
20
66.492380000000011
10
99.997520000000009
20
60.497980000000013
10
102.99726
20
60.497980000000013
10
102.99726
20
54.503580000000014
10
99.997520000000009
20
54.503580000000014
10
99.997520000000009
20
48.509180000000001
10
102.99726
20
48.509180000000001
10
102.99726
20
42.514780000000002
10
99.997520000000009
20
42.514780000000002
10
99.997520000000009
20
36.520379999999996
10
102.99726
20
36.520379999999996
10
102.99726
20
30.525980000000001
10
99.997520000000009
20
30.525980000000001
10
99.997520000000009
20
24.531580000000002
10
102.99726
20
24.531580000000002
10
102.99726
20
18.537179999999999
10
99.997520000000009
20
18.537179999999999
10
99.997520000000009
20
12.542780000000002
10
102.99726
20
12.542780000000002
10
102.99726
20
5.9997400000000001
10
112.06251999999999
20
5.9997400000000001
10
112.06251999999999
20
3.0000000000000004
10
118.05692000000001
20
3.0000000000000004
10
118.05692000000001
20
5.9997400000000001
10
124.05132
20
5.9997400000000001
10
124.05132
20
3.0000000000000004
10
130.04571999999999
20
3.0000000000000004
10
130.04571999999999
20
5.9997400000000001
10
136.04012
20
5.9997400000000001
10
136.04012
20
3.0000000000000004
10
142.03451999999999
20
3.0000000000000004
10
142.03451999999999
20
5.9997400000000001
10
148.02892
20
5.9997400000000001
10
148.02892
20
3.0000000000000004
10
154.02331999999998
20
3.0000000000000004
10
154.02331999999998
20
5.9997400000000001
10
160.01772
20
5.9997400000000001
10
160.01772
20
3.0000000000000004
10
166.01212000000001
20
3.0000000000000004
10
166.01212000000001
20
5.9997400000000001
10
172.00652000000002
20
5.9997400000000001
10
172.00652000000002
20
3.0000000000000004
10
178.00092000000004
20
3.0000000000000004
10
178.00092000000004
20
5.9997400000000001
10
183.99531999999999
20
5.9997400000000001
10
183.99531999999999
20
3.0000000000000004
10
189.98972000000003
20
3.0000000000000004
10
189.98972000000003
20
5.9997400000000001
10
195.98411999999999
20
5.9997400000000001
10
195.98411999999999
20
3.0000000000000004
10
201.97852
20
3.0000000000000004
10
201.97852
20
5.9997400000000001
10
207.97291999999999
20
5.9997400000000001
10
207.97291999999999
20
3.0000000000000004
10
213.96732000000003
20
3.0000000000000004
10
213.96732000000003
20
5.9997400000000001
10
219.96172000000001
20
5.9997400000000001
10
219.96172000000001
20
3.0000000000000004
10
225.95612000000003
20
3.0000000000000004
10
225.95612000000003
20
5.9997400000000001
10
231.95052000000004
20
5.9997400000000001
10
231.95052000000004
20
3.0000000000000004
10
237.94492000000005
20
3.0000000000000004
10
237.94492000000005
20
5.9997400000000001
10
243.93932000000004
20
5.9997400000000001
10
243.93932000000004
20
3.0000000000000004
10
249.93372000000005
20
3.0000000000000004
10
249.93372000000005
20
5.9997400000000001
10
258.99897999999996
20
5.9997400000000001
10
258.99897999999996
20
12.542780000000002
10
261.99871999999999
20
12.542780000000002
10
261.99871999999999
20
18.537179999999999
10
258.99897999999996
20
18.537179999999999
10
258.99897999999996
20
24.531580000000002
10
261.99871999999999
20
24.531580000000002
10
261.99871999999999
20
30.525980000000001
10
258.99897999999996
20
30.525980000000001
10
258.99897999999996
20
36.520379999999996
10
261.99871999999999
20
36.520379999999996
10
261.99871999999999
20
42.514780000000002
10
258.99897999999996
20
42.514780000000002
10
258.99897999999996
20
48.509180000000001
10
261.99871999999999
20
48.509180000000001
10
261.99871999999999
20
54.503580000000014
10
258.99897999999996
20
54.503580000000014
10
258.99897999999996
20
60.497980000000013
10
261.99871999999999
20
60.497980000000013
10
261.99871999999999
20
66.492380000000011
10
258.99897999999996
20
66.492380000000011
10
258.99897999999996
20
72.48678000000001
10
261.99871999999999
20
72.48678000000001
10
261.99871999999999
20
78.481180000000009
10
258.99897999999996
20
78.481180000000009
10
258.99897999999996
20
84.475580000000008
10
261.99871999999999
20
84.475580000000008
10
261.99871999999999
20
90.469980000000007
10
258.99897999999996
20
90.469980000000007
10
258.99897999999996
20
96.46438000000002
10
261.99871999999999
20
96.46438000000002
10
261.99871999999999
20
102.45878000000002
10
258.99897999999996
20
102.45878000000002
10
258.99897999999996
20
112.00156000000001
10
208.49870000000004
20
112.00156000000001
10
208.49870000000004
20
59.001920000000005
10
205.49896000000004
20
59.001920000000005
10
205.49896000000004
20
112.00156000000001
0
ENDSEC
0
SECTION
2
OBJECTS
0
DICTIONARY
5
C
100
AcDbDictionary
3
ACAD_GROUP
350
D
3
ACAD_MLINESTYLE
350
17
0
DICTIONARY
5
D
100
AcDbDictionary
0
DICTIONARY
5
1A
330
C
100
AcDbDictionary
0
DICTIONARY
5
17
100
AcDbDictionary
0
ENDSEC
0
EOF
