0
SECTION
2
HEADER
9
$INSUNITS
70
4
9
$ACADVER
1
AC1014
9
$HANDSEED
5
FFFF
0
ENDSEC
0
SECTION
2
TABLES
0
TABLE
2
VPORT
5
8
100
AcDbSymbolTable
0
ENDTAB
0
TABLE
2
LTYPE
5
5
100
AcDbSymbolTable
0
LTYPE
5
14
100
AcDbSymbolTableRecord
100
AcDbLinetypeTableRecord
2
BYBLOCK
70
0
0
LTYPE
5
15
100
AcDbSymbolTableRecord
100
AcDbLinetypeTableRecord
2
BYLAYER
70
0
0
ENDTAB
0
TABLE
2
LAYER
5
2
100
AcDbSymbolTable
70
2
0
LAYER
5
50
100
AcDbSymbolTableRecord
100
AcDbLayerTableRecord
2
0
70
0
6
CONTINUOUS
0
ENDTAB
0
TABLE
2
STYLE
5
3
100
AcDbSymbolTable
70
1
0
STYLE
5
11
100
AcDbSymbolTableRecord
100
AcDbTextStyleTableRecord
2
STANDARD
70
0
0
ENDTAB
0
TABLE
2
VIEW
5
6
100
AcDbSymbolTable
70
0
0
ENDTAB
0
TABLE
2
UCS
5
7
100
AcDbSymbolTable
70
0
0
ENDTAB
0
TABLE
2
APPID
5
9
100
AcDbSymbolTable
70
2
0
APPID
5
12
100
AcDbSymbolTableRecord
100
AcDbRegAppTableRecord
2
ACAD
70
0
0
ENDTAB
0
TABLE
2
DIMSTYLE
5
A
100
AcDbSymbolTable
70
1
0
ENDTAB
0
TABLE
2
BLOCK_RECORD
5
1
100
AcDbSymbolTable
70
1
0
BLOCK_RECORD
5
1F
100
AcDbSymbolTableRecord
100
AcDbBlockTableRecord
2
*MODEL_SPACE
0
BLOCK_RECORD
5
1B
100
AcDbSymbolTableRecord
100
AcDbBlockTableRecord
2
*PAPER_SPACE
0
ENDTAB
0
ENDSEC
0
SECTION
2
BLOCKS
0
BLOCK
5
20
100
AcDbEntity
100
AcDbBlockBegin
2
*MODEL_SPACE
0
ENDBLK
5
21
100
AcDbEntity
100
AcDbBlockEnd
0
BLOCK
5
1C
100
AcDbEntity
100
AcDbBlockBegin
2
*PAPER_SPACE
0
ENDBLK
5
1D
100
AcDbEntity
100
AcDbBlockEnd
0
ENDSEC
0
SECTION
2
ENTITIES
0
LWPOLYLINE
5
100
100
AcDbEntity
8
0
100
AcDbPolyline
90
2
70
1
43
0.0
10
10.233659449977734
20
16.598867998426957
42
0.16237133950862473
10
10.233659449977742
20
-16.598867998426961
42
-1.7913067745409361
0
LWPOLYLINE
5
101
100
AcDbEntity
8
0
100
AcDbPolyline
90
24
70
1
43
0.0
10
2.2299899232329778
20
-4.1940010660799132
10
2.699461486018873
20
-5.0769486589388411
42
0.14945100134912798
10
5.0769486589388269
20
-2.6994614860188726
10
4.1940010660799043
20
-2.2299899232329818
42
0.11393560830164534
10
4.7471064283407038
20
-0.16577260933688165
10
5.7464972553598059
20
-0.2006721060393829
42
0.14945100134912792
10
4.8762765528994478
20
3.0470357693409271
10
4.0282284567430269
20
2.5171165051077233
42
0.11393560830164547
10
2.517116505107726
20
4.0282284567430224
10
3.0470357693409333
20
4.8762765528994487
42
0.14945100134912789
10
-0.20067210603937902
20
5.7464972553598006
10
-0.16577260933687835
20
4.7471064283407047
42
0.11393560830164547
10
-2.2299899232329778
20
4.1940010660799034
10
-2.699461486018873
20
5.0769486589388322
42
0.14945100134912767
10
-5.0769486589388269
20
2.699461486018873
10
-4.1940010660799043
20
2.2299899232329823
42
0.11393560830164527
10
-4.7471064283407038
20
0.16577260933688248
10
-5.7464972553597971
20
0.20067210603938399
42
0.14945100134912778
10
-4.8762765528994478
20
-3.0470357693409245
10
-4.0282284567430269
20
-2.5171165051077207
42
0.11393560830164552
10
-2.517116505107726
20
-4.0282284567430207
10
-3.0470357693409338
20
-4.8762765528994478
42
0.14945100134912798
10
0.20067210603937902
20
-5.7464972553598042
10
0.16577260933687832
20
-4.7471064283407065
42
0.11393560830164515
0
LWPOLYLINE
5
102
100
AcDbEntity
8
0
100
AcDbPolyline
90
24
70
1
43
0.0
10
0
20
-4.5
42
0.13165249758739564
10
2.2499999999999964
20
-3.8971143170299749
10
2.7500000000000036
20
-4.7631397208144142
42
0.13165249758739569
10
4.7631397208144133
20
-2.7500000000000013
10
3.8971143170299709
20
-2.2500000000000013
42
0.13165249758739597
10
4.5000000000000018
20
1.6653345369377338e-16
10
5.5000000000000071
20
3.8857805861880484e-16
42
0.13165249758739586
10
4.7631397208144133
20
2.7499999999999987
10
3.8971143170299798
20
2.2499999999999982
42
0.13165249758739581
10
2.2500000000000053
20
3.8971143170299722
10
2.750000000000004
20
4.7631397208144115
42
0.13165249758739603
10
0
20
5.5
10
0
20
4.5
42
0.13165249758739558
10
-2.2499999999999964
20
3.8971143170299749
10
-2.7499999999999947
20
4.7631397208144142
42
0.13165249758739592
10
-4.7631397208144133
20
2.7500000000000018
10
-3.8971143170299714
20
2.2500000000000018
42
0.13165249758739597
10
-4.5000000000000018
20
1.5543122344752192e-15
10
-5.4999999999999982
20
1.7763568394002505e-15
42
0.13165249758739581
10
-4.7631397208144133
20
-2.7499999999999956
10
-3.8971143170299798
20
-2.2499999999999969
42
0.13165249758739586
10
-2.2500000000000053
20
-3.8971143170299722
10
-2.750000000000004
20
-4.7631397208144115
42
0.13165249758739603
10
0
20
-5.5
0
ENDSEC
0
SECTION
2
OBJECTS
0
DICTIONARY
5
C
100
AcDbDictionary
3
ACAD_GROUP
350
D
3
ACAD_MLINESTYLE
350
17
0
DICTIONARY
5
D
100
AcDbDictionary
0
DICTIONARY
5
1A
330
C
100
AcDbDictionary
0
DICTIONARY
5
17
100
AcDbDictionary
0
ENDSEC
0
EOF
