0
SECTION
2
HEADER
9
$INSUNITS
70
4
9
$ACADVER
1
AC1014
9
$HANDSEED
5
FFFF
0
ENDSEC
0
SECTION
2
TABLES
0
TABLE
2
VPORT
5
8
100
AcDbSymbolTable
0
ENDTAB
0
TABLE
2
LTYPE
5
5
100
AcDbSymbolTable
0
LTYPE
5
14
100
AcDbSymbolTableRecord
100
AcDbLinetypeTableRecord
2
BYBLOCK
70
0
0
LTYPE
5
15
100
AcDbSymbolTableRecord
100
AcDbLinetypeTableRecord
2
BYLAYER
70
0
0
ENDTAB
0
TABLE
2
LAYER
5
2
100
AcDbSymbolTable
70
2
0
LAYER
5
50
100
AcDbSymbolTableRecord
100
AcDbLayerTableRecord
2
0
70
0
6
CONTINUOUS
0
ENDTAB
0
TABLE
2
STYLE
5
3
100
AcDbSymbolTable
70
1
0
STYLE
5
11
100
AcDbSymbolTableRecord
100
AcDbTextStyleTableRecord
2
STANDARD
70
0
0
ENDTAB
0
TABLE
2
VIEW
5
6
100
AcDbSymbolTable
70
0
0
ENDTAB
0
TABLE
2
UCS
5
7
100
AcDbSymbolTable
70
0
0
ENDTAB
0
TABLE
2
APPID
5
9
100
AcDbSymbolTable
70
2
0
APPID
5
12
100
AcDbSymbolTableRecord
100
AcDbRegAppTableRecord
2
ACAD
70
0
0
ENDTAB
0
TABLE
2
DIMSTYLE
5
A
100
AcDbSymbolTable
70
1
0
ENDTAB
0
TABLE
2
BLOCK_RECORD
5
1
100
AcDbSymbolTable
70
1
0
BLOCK_RECORD
5
1F
100
AcDbSymbolTableRecord
100
AcDbBlockTableRecord
2
*MODEL_SPACE
0
BLOCK_RECORD
5
1B
100
AcDbSymbolTableRecord
100
AcDbBlockTableRecord
2
*PAPER_SPACE
0
ENDTAB
0
ENDSEC
0
SECTION
2
BLOCKS
0
BLOCK
5
20
100
AcDbEntity
100
AcDbBlockBegin
2
*MODEL_SPACE
0
ENDBLK
5
21
100
AcDbEntity
100
AcDbBlockEnd
0
BLOCK
5
1C
100
AcDbEntity
100
AcDbBlockBegin
2
*PAPER_SPACE
0
ENDBLK
5
1D
100
AcDbEntity
100
AcDbBlockEnd
0
ENDSEC
0
SECTION
2
ENTITIES
0
LWPOLYLINE
5
100
100
AcDbEntity
8
0
100
AcDbPolyline
90
80
70
1
43
0.0
10
60.982820929846504
20
-39.496882252824548
42
0.15164414645383087
10
68.821279562079894
20
-36.764093449512487
42
0.028194824683131701
10
71.182848539478186
20
-39.280531625060171
42
0.15164414645383101
10
67.958346547144615
20
-46.929855469308031
42
0.012154104320436936
10
69.436717307729509
20
-48.077359714774687
42
0.1516441464538309
10
76.047056285364079
20
-43.056106188661182
42
0.028194824683131701
10
79.070664011537332
20
-44.71961616596495
42
0.15164414645383062
10
78.367751443271899
20
-52.990981367315712
42
0.012154104320436936
10
80.128363901592962
20
-53.62548106843537
42
0.15164414645383131
10
84.863517188557978
20
-46.807278099786899
42
0.028194824683130715
10
88.253191872554538
20
-47.45502393191272
42
0.15164414645383131
10
90.140674708018892
20
-55.538771634468119
42
0.012154104320436364
10
92.011187849747401
20
-55.59815753967581
42
0.15164414645383076
10
94.407645650561761
20
-47.650418340277156
42
0.028194824683131208
10
97.831582317059841
20
-47.21899415206596
42
0.15164414645383106
10
102.1247005854525
20
-54.323830807917744
42
0.012154104320436364
10
103.92201555164463
20
-53.802289811045853
42
0.15164414645383134
10
103.74519587966137
20
-45.502994468889256
42
0.028194824683131208
10
106.86823575177462
20
-44.034631065792247
42
0.15164414645383106
10
113.14674912507151
20
-49.465085760757866
42
0.012154104320436364
10
114.69493220420662
20
-48.413669928369991
42
0.1516441464538314
10
111.96214340089455
20
-40.57521129613658
42
0.028194824683131208
10
114.47858157644222
20
-38.21364231873828
42
0.1516441464538312
10
122.1279054206901
20
-41.438144311071817
42
0.012154104320436936
10
123.27540966615675
20
-39.959773550486901
42
0.1516441464538307
10
118.25415614004322
20
-33.349434572852374
42
0.028194824683131208
10
119.91766611734697
20
-30.325826846679114
42
0.15164414645383106
10
128.18903131869774
20
-31.028739414944528
42
0.012154104320436936
10
128.82353101981738
20
-29.268126956623462
42
0.1516441464538314
10
122.00532805116892
20
-24.53297366965846
42
0.028194824683131208
10
122.65307388329472
20
-21.143298985661872
42
0.15164414645383112
10
130.73682158585009
20
-19.255816150197504
42
0.012154104320437507
10
130.7962074910578
20
-17.385303008469009
42
0.15164414645383126
10
122.84846829165913
20
-14.988845207654659
42
0.028194824683131208
10
122.41704410344794
20
-11.564908541156571
42
0.15164414645383101
10
129.52188075929971
20
-7.2717902727638792
42
0.012154104320435793
10
129.00033976242779
20
-5.4744753065717848
42
0.15164414645383126
10
120.70104442027122
20
-5.6512949785550859
42
0.028194824683131208
10
119.23268101717419
20
-2.5282551064418621
42
0.15164414645383131
10
124.66313571213979
20
3.7502582668550621
42
0.012154104320436936
10
123.61171987975186
20
5.2984413459902138
42
0.1516441464538309
10
115.77326124751849
20
2.5656525426781029
42
0.028194824683131208
10
113.4116922701202
20
5.08209071822575
42
0.15164414645383115
10
116.6361942624537
20
12.73141456247366
42
0.012154104320436364
10
115.1578235018688
20
13.878918807940279
42
0.15164414645383106
10
108.54748452423425
20
8.8576652818267387
42
0.028194824683130715
10
105.52387679806102
20
10.521175259130469
42
0.15164414645383087
10
106.2267893663264
20
18.792540460481241
42
0.012154104320436936
10
104.46617690800529
20
19.427040161600907
42
0.15164414645383115
10
99.73102362104035
20
12.608837192952409
42
0.028194824683131208
10
96.341348937043776
20
13.256583025078204
42
0.15164414645383106
10
94.453866101579379
20
21.340330727633585
42
0.012154104320436936
10
92.583352959850885
20
21.399716632841262
42
0.15164414645383112
10
90.186895159036538
20
13.451977433442597
42
0.028194824683131208
10
86.762958492538473
20
13.020553245231369
42
0.15164414645383106
10
82.469840224145742
20
20.125389901083118
42
0.012154104320436364
10
80.672525257953652
20
19.603848904211226
42
0.15164414645383126
10
80.849344929936962
20
11.304553562054638
42
0.028194824683131208
10
77.726305057823751
20
9.8361901589576117
42
0.1516441464538312
10
71.447791684526806
20
15.266644853923182
42
0.012154104320433507
10
69.899608605392103
20
14.215229021535581
42
0.15164414645383131
10
72.632397408704151
20
6.3767703893021555
42
0.028194824683131701
10
70.11595923315646
20
4.0152014119038935
42
0.1516441464538314
10
62.466635388908571
20
7.239703404237483
42
0.012154104320436936
10
61.319131143441936
20
5.7613326436525947
42
0.15164414645383131
10
66.340384669555434
20
-0.84900633398200309
42
0.028194824683131208
10
64.676874692251658
20
-3.8726140601552239
42
0.15164414645383087
10
56.405509490900876
20
-3.1697014918897604
42
0.012154104320436364
10
55.771009789781203
20
-4.9303139502108326
42
0.1516441464538312
10
62.589212758429653
20
-9.6654672371758625
42
0.028194824683131208
10
61.941466926303818
20
-13.055141921172424
42
0.15164414645383062
10
53.85771922374844
20
-14.942624756636748
42
0.012154104320436364
10
53.798333318540713
20
-16.813137898365248
42
0.15164414645383154
10
61.746072517939382
20
-19.209595699179655
42
0.028194824683131208
10
62.177496706150535
20
-22.633532365677755
42
0.15164414645383062
10
55.072660050298765
20
-26.926650634070391
42
0.012154104320436364
10
55.594201047170642
20
-28.723965600262524
42
0.15164414645383115
10
63.893496389327225
20
-28.547145928279281
42
0.028194824683131208
10
65.361859792424227
20
-31.670185800392531
42
0.15164414645383045
10
59.931405097458601
20
-37.948699173689384
42
0.012154104320436364
0
CIRCLE
5
101
100
AcDbEntity
8
0
100
AcDbCircle
10
92.297270404799264
20
-17.099220453417274
30
0
40
5.6249999999999964
210
0
220
0
230
1
0
ENDSEC
0
SECTION
2
OBJECTS
0
DICTIONARY
5
C
100
AcDbDictionary
3
ACAD_GROUP
350
D
3
ACAD_MLINESTYLE
350
17
0
DICTIONARY
5
D
100
AcDbDictionary
0
DICTIONARY
5
1A
330
C
100
AcDbDictionary
0
DICTIONARY
5
17
100
AcDbDictionary
0
ENDSEC
0
EOF
