0
SECTION
2
HEADER
9
$INSUNITS
70
4
9
$ACADVER
1
AC1014
9
$HANDSEED
5
FFFF
0
ENDSEC
0
SECTION
2
TABLES
0
TABLE
2
VPORT
5
8
100
AcDbSymbolTable
0
ENDTAB
0
TABLE
2
LTYPE
5
5
100
AcDbSymbolTable
0
LTYPE
5
14
100
AcDbSymbolTableRecord
100
AcDbLinetypeTableRecord
2
BYBLOCK
70
0
0
LTYPE
5
15
100
AcDbSymbolTableRecord
100
AcDbLinetypeTableRecord
2
BYLAYER
70
0
0
ENDTAB
0
TABLE
2
LAYER
5
2
100
AcDbSymbolTable
70
2
0
LAYER
5
50
100
AcDbSymbolTableRecord
100
AcDbLayerTableRecord
2
0
70
0
6
CONTINUOUS
0
ENDTAB
0
TABLE
2
STYLE
5
3
100
AcDbSymbolTable
70
1
0
STYLE
5
11
100
AcDbSymbolTableRecord
100
AcDbTextStyleTableRecord
2
STANDARD
70
0
0
ENDTAB
0
TABLE
2
VIEW
5
6
100
AcDbSymbolTable
70
0
0
ENDTAB
0
TABLE
2
UCS
5
7
100
AcDbSymbolTable
70
0
0
ENDTAB
0
TABLE
2
APPID
5
9
100
AcDbSymbolTable
70
2
0
APPID
5
12
100
AcDbSymbolTableRecord
100
AcDbRegAppTableRecord
2
ACAD
70
0
0
ENDTAB
0
TABLE
2
DIMSTYLE
5
A
100
AcDbSymbolTable
70
1
0
ENDTAB
0
TABLE
2
BLOCK_RECORD
5
1
100
AcDbSymbolTable
70
1
0
BLOCK_RECORD
5
1F
100
AcDbSymbolTableRecord
100
AcDbBlockTableRecord
2
*MODEL_SPACE
0
BLOCK_RECORD
5
1B
100
AcDbSymbolTableRecord
100
AcDbBlockTableRecord
2
*PAPER_SPACE
0
ENDTAB
0
ENDSEC
0
SECTION
2
BLOCKS
0
BLOCK
5
20
100
AcDbEntity
100
AcDbBlockBegin
2
*MODEL_SPACE
0
ENDBLK
5
21
100
AcDbEntity
100
AcDbBlockEnd
0
BLOCK
5
1C
100
AcDbEntity
100
AcDbBlockBegin
2
*PAPER_SPACE
0
ENDBLK
5
1D
100
AcDbEntity
100
AcDbBlockEnd
0
ENDSEC
0
SECTION
2
ENTITIES
0
LWPOLYLINE
5
100
100
AcDbEntity
8
0
100
AcDbPolyline
90
100
70
1
43
0.0
10
63.484759999999994
20
5.9997400000000001
10
63.484759999999994
20
3.0000000000000004
10
69.479159999999993
20
3.0000000000000004
10
69.479159999999993
20
5.9997400000000001
10
75.473559999999992
20
5.9997400000000001
10
75.473559999999992
20
3.0000000000000004
10
81.467960000000005
20
3.0000000000000004
10
81.467960000000005
20
5.9997400000000001
10
87.462360000000018
20
5.9997400000000001
10
87.462360000000018
20
3.0000000000000004
10
96.997520000000009
20
3.0000000000000004
10
96.997520000000009
20
12.542780000000002
10
93.997780000000006
20
12.542780000000002
10
93.997780000000006
20
18.537179999999999
10
96.997520000000009
20
18.537179999999999
10
96.997520000000009
20
24.531580000000002
10
93.997780000000006
20
24.531580000000002
10
93.997780000000006
20
30.525980000000001
10
96.997520000000009
20
30.525980000000001
10
96.997520000000009
20
36.520379999999996
10
93.997780000000006
20
36.520379999999996
10
93.997780000000006
20
42.514780000000002
10
96.997520000000009
20
42.514780000000002
10
96.997520000000009
20
48.509180000000001
10
93.997780000000006
20
48.509180000000001
10
93.997780000000006
20
54.503580000000014
10
96.997520000000009
20
54.503580000000014
10
96.997520000000009
20
60.497980000000013
10
93.997780000000006
20
60.497980000000013
10
93.997780000000006
20
66.492380000000011
10
96.997520000000009
20
66.492380000000011
10
96.997520000000009
20
72.48678000000001
10
93.997780000000006
20
72.48678000000001
10
93.997780000000006
20
78.481180000000009
10
96.997520000000009
20
78.481180000000009
10
96.997520000000009
20
84.475580000000008
10
93.997780000000006
20
84.475580000000008
10
93.997780000000006
20
90.469980000000007
10
96.997520000000009
20
90.469980000000007
10
96.997520000000009
20
96.46438000000002
10
93.997780000000006
20
96.46438000000002
10
93.997780000000006
20
102.45878000000002
10
96.997520000000009
20
102.45878000000002
10
96.997520000000009
20
112.00156000000001
10
49.999900000000004
20
112.00156000000001
10
49.999900000000004
20
59.001920000000005
10
46.997619999999998
20
59.001920000000005
10
46.997619999999998
20
112.00156000000001
10
0
20
112.00156000000001
10
0
20
102.45878000000002
10
2.9997400000000001
20
102.45878000000002
10
2.9997400000000001
20
96.46438000000002
10
0
20
96.46438000000002
10
0
20
90.469980000000007
10
2.9997400000000001
20
90.469980000000007
10
2.9997400000000001
20
84.475580000000008
10
0
20
84.475580000000008
10
0
20
78.481180000000009
10
2.9997400000000001
20
78.481180000000009
10
2.9997400000000001
20
72.48678000000001
10
0
20
72.48678000000001
10
0
20
66.492380000000011
10
2.9997400000000001
20
66.492380000000011
10
2.9997400000000001
20
60.497980000000013
10
0
20
60.497980000000013
10
0
20
54.503580000000014
10
2.9997400000000001
20
54.503580000000014
10
2.9997400000000001
20
48.509180000000001
10
0
20
48.509180000000001
10
0
20
42.514780000000002
10
2.9997400000000001
20
42.514780000000002
10
2.9997400000000001
20
36.520379999999996
10
0
20
36.520379999999996
10
0
20
30.525980000000001
10
2.9997400000000001
20
30.525980000000001
10
2.9997400000000001
20
24.531580000000002
10
0
20
24.531580000000002
10
0
20
18.537179999999999
10
2.9997400000000001
20
18.537179999999999
10
2.9997400000000001
20
12.542780000000002
10
0
20
12.542780000000002
10
0
20
3.0000000000000004
10
9.5351600000000012
20
3.0000000000000004
10
9.5351600000000012
20
5.9997400000000001
10
15.52956
20
5.9997400000000001
10
15.52956
20
3.0000000000000004
10
21.523959999999999
20
3.0000000000000004
10
21.523959999999999
20
5.9997400000000001
10
27.518360000000001
20
5.9997400000000001
10
27.518360000000001
20
3.0000000000000004
10
33.51276
20
3.0000000000000004
10
33.51276
20
5.9997400000000001
10
39.507159999999999
20
5.9997400000000001
10
39.507159999999999
20
3.0000000000000004
10
45.501560000000005
20
3.0000000000000004
10
45.501560000000005
20
5.9997400000000001
10
51.495959999999997
20
5.9997400000000001
10
51.495959999999997
20
3.0000000000000004
10
57.490360000000003
20
3.0000000000000004
10
57.490360000000003
20
5.9997400000000001
0
ENDSEC
0
SECTION
2
OBJECTS
0
DICTIONARY
5
C
100
AcDbDictionary
3
ACAD_GROUP
350
D
3
ACAD_MLINESTYLE
350
17
0
DICTIONARY
5
D
100
AcDbDictionary
0
DICTIONARY
5
1A
330
C
100
AcDbDictionary
0
DICTIONARY
5
17
100
AcDbDictionary
0
ENDSEC
0
EOF
