0
SECTION
2
HEADER
9
$INSUNITS
70
4
9
$ACADVER
1
AC1014
9
$HANDSEED
5
FFFF
0
ENDSEC
0
SECTION
2
TABLES
0
TABLE
2
VPORT
5
8
100
AcDbSymbolTable
0
ENDTAB
0
TABLE
2
LTYPE
5
5
100
AcDbSymbolTable
0
LTYPE
5
14
100
AcDbSymbolTableRecord
100
AcDbLinetypeTableRecord
2
BYBLOCK
70
0
0
LTYPE
5
15
100
AcDbSymbolTableRecord
100
AcDbLinetypeTableRecord
2
BYLAYER
70
0
0
ENDTAB
0
TABLE
2
LAYER
5
2
100
AcDbSymbolTable
70
2
0
LAYER
5
50
100
AcDbSymbolTableRecord
100
AcDbLayerTableRecord
2
0
70
0
6
CONTINUOUS
0
ENDTAB
0
TABLE
2
STYLE
5
3
100
AcDbSymbolTable
70
1
0
STYLE
5
11
100
AcDbSymbolTableRecord
100
AcDbTextStyleTableRecord
2
STANDARD
70
0
0
ENDTAB
0
TABLE
2
VIEW
5
6
100
AcDbSymbolTable
70
0
0
ENDTAB
0
TABLE
2
UCS
5
7
100
AcDbSymbolTable
70
0
0
ENDTAB
0
TABLE
2
APPID
5
9
100
AcDbSymbolTable
70
2
0
APPID
5
12
100
AcDbSymbolTableRecord
100
AcDbRegAppTableRecord
2
ACAD
70
0
0
ENDTAB
0
TABLE
2
DIMSTYLE
5
A
100
AcDbSymbolTable
70
1
0
ENDTAB
0
TABLE
2
BLOCK_RECORD
5
1
100
AcDbSymbolTable
70
1
0
BLOCK_RECORD
5
1F
100
AcDbSymbolTableRecord
100
AcDbBlockTableRecord
2
*MODEL_SPACE
0
BLOCK_RECORD
5
1B
100
AcDbSymbolTableRecord
100
AcDbBlockTableRecord
2
*PAPER_SPACE
0
ENDTAB
0
ENDSEC
0
SECTION
2
BLOCKS
0
BLOCK
5
20
100
AcDbEntity
100
AcDbBlockBegin
2
*MODEL_SPACE
0
ENDBLK
5
21
100
AcDbEntity
100
AcDbBlockEnd
0
BLOCK
5
1C
100
AcDbEntity
100
AcDbBlockBegin
2
*PAPER_SPACE
0
ENDBLK
5
1D
100
AcDbEntity
100
AcDbBlockEnd
0
ENDSEC
0
SECTION
2
ENTITIES
0
LWPOLYLINE
5
100
100
AcDbEntity
8
0
100
AcDbPolyline
90
124
70
1
43
0.0
10
106.49753999999999
20
142.52753999999999
10
103.49779999999998
20
142.52753999999999
10
103.49779999999998
20
136.53314
10
106.49753999999999
20
136.53314
10
106.49753999999999
20
130.53874000000002
10
103.49779999999998
20
130.53874000000002
10
103.49779999999998
20
124.54433999999999
10
106.49753999999999
20
124.54433999999999
10
106.49753999999999
20
118.00130000000001
10
115.56279999999998
20
118.00130000000001
10
115.56279999999998
20
115.00156000000003
10
121.55719999999999
20
115.00156000000003
10
121.55719999999999
20
118.00130000000001
10
127.55159999999998
20
118.00130000000001
10
127.55159999999998
20
115.00156000000003
10
133.54599999999999
20
115.00156000000003
10
133.54599999999999
20
118.00130000000001
10
139.54039999999998
20
118.00130000000001
10
139.54039999999998
20
115.00156000000003
10
145.53479999999996
20
115.00156000000003
10
145.53479999999996
20
118.00130000000001
10
151.52919999999997
20
118.00130000000001
10
151.52919999999997
20
115.00156000000003
10
157.52359999999999
20
115.00156000000003
10
157.52359999999999
20
118.00130000000001
10
163.51799999999997
20
118.00130000000001
10
163.51799999999997
20
115.00156000000003
10
169.51239999999999
20
115.00156000000003
10
169.51239999999999
20
118.00130000000001
10
175.5068
20
118.00130000000001
10
175.5068
20
115.00156000000003
10
181.50120000000001
20
115.00156000000003
10
181.50120000000001
20
118.00130000000001
10
187.4956
20
118.00130000000001
10
187.4956
20
115.00156000000003
10
193.49000000000001
20
115.00156000000003
10
193.49000000000001
20
118.00130000000001
10
199.48439999999999
20
118.00130000000001
10
199.48439999999999
20
115.00156000000003
10
205.47879999999998
20
115.00156000000003
10
205.47879999999998
20
118.00130000000001
10
211.47319999999996
20
118.00130000000001
10
211.47319999999996
20
115.00156000000003
10
217.4676
20
115.00156000000003
10
217.4676
20
118.00130000000001
10
223.46199999999999
20
118.00130000000001
10
223.46199999999999
20
115.00156000000003
10
229.4564
20
115.00156000000003
10
229.4564
20
118.00130000000001
10
235.45080000000002
20
118.00130000000001
10
235.45080000000002
20
115.00156000000003
10
241.44520000000003
20
115.00156000000003
10
241.44520000000003
20
118.00130000000001
10
247.43960000000001
20
118.00130000000001
10
247.43960000000001
20
115.00156000000003
10
253.43400000000003
20
115.00156000000003
10
253.43400000000003
20
118.00130000000001
10
262.49925999999994
20
118.00130000000001
10
262.49925999999994
20
124.54433999999999
10
265.49899999999997
20
124.54433999999999
10
265.49899999999997
20
130.53874000000002
10
262.49925999999994
20
130.53874000000002
10
262.49925999999994
20
136.53314
10
265.49899999999997
20
136.53314
10
265.49899999999997
20
142.52753999999999
10
262.49925999999994
20
142.52753999999999
10
262.49925999999994
20
148.52194
10
265.49899999999997
20
148.52194
10
265.49899999999997
20
154.51633999999999
10
262.49925999999994
20
154.51633999999999
10
262.49925999999994
20
160.51074
10
265.49899999999997
20
160.51074
10
265.49899999999997
20
166.50513999999998
10
262.49925999999994
20
166.50513999999998
10
262.49925999999994
20
172.49954
10
265.49899999999997
20
172.49954
10
265.49899999999997
20
178.49394000000001
10
262.49925999999994
20
178.49394000000001
10
262.49925999999994
20
184.48834000000002
10
265.49899999999997
20
184.48834000000002
10
265.49899999999997
20
190.48273999999998
10
262.49925999999994
20
190.48273999999998
10
262.49925999999994
20
196.47714000000002
10
265.49899999999997
20
196.47714000000002
10
265.49899999999997
20
202.47154
10
262.49925999999994
20
202.47154
10
262.49925999999994
20
208.46593999999999
10
265.49899999999997
20
208.46593999999999
10
265.49899999999997
20
214.46034
10
262.49925999999994
20
214.46034
10
262.49925999999994
20
224.00312000000002
10
211.99898000000002
20
224.00312000000002
10
211.99898000000002
20
171.00348
10
208.99924000000001
20
171.00348
10
208.99924000000001
20
224.00312000000002
10
159.99756000000002
20
224.00312000000002
10
159.99756000000002
20
171.00348
10
156.99781999999996
20
171.00348
10
156.99781999999996
20
224.00312000000002
10
106.49753999999999
20
224.00312000000002
10
106.49753999999999
20
214.46034
10
103.49779999999998
20
214.46034
10
103.49779999999998
20
208.46593999999999
10
106.49753999999999
20
208.46593999999999
10
106.49753999999999
20
202.47154
10
103.49779999999998
20
202.47154
10
103.49779999999998
20
196.47714000000002
10
106.49753999999999
20
196.47714000000002
10
106.49753999999999
20
190.48273999999998
10
103.49779999999998
20
190.48273999999998
10
103.49779999999998
20
184.48834000000002
10
106.49753999999999
20
184.48834000000002
10
106.49753999999999
20
178.49394000000001
10
103.49779999999998
20
178.49394000000001
10
103.49779999999998
20
172.49954
10
106.49753999999999
20
172.49954
10
106.49753999999999
20
166.50513999999998
10
103.49779999999998
20
166.50513999999998
10
103.49779999999998
20
160.51074
10
106.49753999999999
20
160.51074
10
106.49753999999999
20
154.51633999999999
10
103.49779999999998
20
154.51633999999999
10
103.49779999999998
20
148.52194
10
106.49753999999999
20
148.52194
0
LWPOLYLINE
5
101
100
AcDbEntity
8
0
100
AcDbPolyline
90
4
70
1
43
0.0
10
190.49754000000001
20
210.41758045663471
10
190.49754000000001
20
140.41758045663471
10
177.49753999999999
20
140.41758045663471
10
177.49753999999999
20
210.41758045663471
0
LWPOLYLINE
5
102
100
AcDbEntity
8
0
100
AcDbPolyline
90
4
70
1
43
0.0
10
237.49753999999999
20
210.41758045663471
10
250.49754000000001
20
210.41758045663471
10
250.49754000000001
20
140.41758045663471
10
237.49753999999999
20
140.41758045663471
0
LWPOLYLINE
5
103
100
AcDbEntity
8
0
100
AcDbPolyline
90
4
70
1
43
0.0
10
124.81054
20
201.77886245966158
10
139.81054
20
201.77886245966158
10
139.81054
20
131.77886245966158
10
124.81054
20
131.77886245966158
0
ENDSEC
0
SECTION
2
OBJECTS
0
DICTIONARY
5
C
100
AcDbDictionary
3
ACAD_GROUP
350
D
3
ACAD_MLINESTYLE
350
17
0
DICTIONARY
5
D
100
AcDbDictionary
0
DICTIONARY
5
1A
330
C
100
AcDbDictionary
0
DICTIONARY
5
17
100
AcDbDictionary
0
ENDSEC
0
EOF
